<?xml version="1.0" encoding="iso-8859-1"?>
<!-- Uploaded to: SVG Repo, www.svgrepo.com, Generator: SVG Repo Mixer Tools -->
<!DOCTYPE svg PUBLIC "-//W3C//DTD SVG 1.1//EN">
<svg fill="#fff"
	 width="32px" height="32px" viewBox="0 0 475.465 475.465"
	 xml:space="preserve">
<g>
	<g>
		<path d="M320.535,320.229c10.701-10.701,19.107-23.173,24.986-37.071c6.095-14.411,9.186-29.694,9.186-45.426
			c0-15.732-3.091-31.015-9.186-45.426c-5.879-13.898-14.285-26.371-24.986-37.071c-10.7-10.701-23.173-19.107-37.071-24.986
			c-14.411-6.095-29.694-9.186-45.426-9.186c-15.73,0-31.014,3.091-45.425,9.186c-13.898,5.878-26.371,14.285-37.071,24.986
			c-10.701,10.701-19.107,23.173-24.985,37.071c-6.096,14.411-9.186,29.695-9.186,45.426c0,15.731,3.09,31.015,9.186,45.426
			c5.878,13.898,14.285,26.37,24.985,37.071s23.173,19.107,37.071,24.985c14.412,6.096,29.695,9.187,45.425,9.187
			c15.732,0,31.015-3.091,45.426-9.187C297.362,339.337,309.835,330.931,320.535,320.229z M238.038,163.903
			c40.776,0,73.83,33.054,73.83,73.829c0,40.774-33.054,73.829-73.83,73.829c-40.774,0-73.828-33.055-73.828-73.829
			C164.209,196.958,197.264,163.903,238.038,163.903z"/>
		<path d="M238.038,354.901c-15.797,0-31.146-3.104-45.62-9.226c-13.958-5.903-26.484-14.346-37.23-25.093
			c-10.747-10.747-19.189-23.273-25.092-37.23c-6.122-14.472-9.226-29.821-9.226-45.62c0-15.799,3.104-31.148,9.226-45.621
			c5.904-13.958,14.346-26.484,25.092-37.23c10.746-10.747,23.272-19.189,37.23-25.093c14.474-6.122,29.823-9.226,45.62-9.226
			c15.798,0,31.148,3.104,45.621,9.226c13.959,5.904,26.485,14.346,37.23,25.093c10.746,10.746,19.188,23.271,25.094,37.23
			c6.121,14.474,9.225,29.822,9.225,45.621c0,15.798-3.104,31.146-9.225,45.62c-5.904,13.958-14.347,26.483-25.094,37.23
			c-10.746,10.747-23.271,19.189-37.23,25.093C269.186,351.797,253.836,354.901,238.038,354.901z M238.038,121.563
			c-15.663,0-30.88,3.077-45.23,9.146c-13.839,5.854-26.258,14.224-36.913,24.879s-19.025,23.074-24.878,36.913
			c-6.069,14.349-9.146,29.566-9.146,45.231c0,15.665,3.077,30.883,9.146,45.231c5.853,13.837,14.223,26.256,24.878,36.912
			c10.655,10.655,23.074,19.025,36.913,24.878c14.35,6.07,29.567,9.147,45.23,9.147c15.665,0,30.882-3.077,45.232-9.147
			c13.839-5.853,26.258-14.223,36.912-24.878c10.655-10.655,19.026-23.074,24.879-36.912c6.069-14.351,9.146-29.568,9.146-45.231
			c0-15.664-3.077-30.881-9.146-45.231c-5.854-13.839-14.225-26.258-24.879-36.913c-10.654-10.655-23.073-19.025-36.912-24.879
			C268.92,124.641,253.701,121.563,238.038,121.563z M238.038,312.062c-40.985,0-74.328-33.344-74.328-74.329
			s33.343-74.329,74.328-74.329c40.986,0,74.33,33.344,74.33,74.329S279.023,312.062,238.038,312.062z M238.038,164.403
			c-40.433,0-73.328,32.896-73.328,73.329s32.895,73.329,73.328,73.329c40.434,0,73.33-32.896,73.33-73.329
			S278.472,164.403,238.038,164.403z"/>
	</g>
	<g>
		<path d="M238.705,377.589c-11.798,0-21.381,9.546-21.419,21.354l-0.17,54.535c-0.038,11.83,9.523,21.449,21.353,21.486
			c0.023,0,0.045,0,0.068,0c11.799,0,21.382-9.546,21.419-21.354l0.171-54.535c0.037-11.83-9.523-21.45-21.354-21.486
			C238.75,377.589,238.727,377.589,238.705,377.589z"/>
		<path d="M238.537,475.464h-0.068c-5.857-0.019-11.354-2.315-15.481-6.469c-4.127-4.152-6.39-9.664-6.372-15.52l0.17-54.535
			c0.039-12.049,9.871-21.852,21.919-21.852c5.925,0.018,11.423,2.314,15.55,6.468c4.128,4.153,6.391,9.665,6.372,15.521
			l-0.171,54.535C260.418,465.661,250.585,475.464,238.537,475.464z M238.771,378.089c-11.565,0-20.949,9.355-20.986,20.855
			l-0.17,54.535c-0.018,5.588,2.142,10.848,6.081,14.812c3.939,3.963,9.186,6.155,14.774,6.173l0.067,0.5v-0.5
			c11.499,0,20.883-9.355,20.919-20.855l0.171-54.535c0.018-5.588-2.143-10.848-6.081-14.812
			C249.606,380.298,244.359,378.105,238.771,378.089z"/>
	</g>
	<g>
		<path d="M237.366,97.876c0.058,0,0.118,0,0.177,0c11.83-0.096,21.341-9.763,21.247-21.593l-0.441-54.535
			c-0.096-11.83-9.75-21.33-21.593-21.246c-11.83,0.096-21.342,9.763-21.246,21.592l0.441,54.536
			C216.046,88.401,225.616,97.876,237.366,97.876z"/>
		<path d="M237.366,98.376c-11.987,0-21.818-9.753-21.916-21.743l-0.441-54.536c-0.047-5.854,2.188-11.377,6.294-15.551
			s9.593-6.498,15.448-6.545l0.16,0c11.999,0,21.841,9.753,21.938,21.743l0.441,54.535c0.097,12.086-9.657,21.999-21.743,22.097
			L237.366,98.376z M236.911,1.001l-0.152,0c-5.587,0.045-10.823,2.264-14.742,6.247c-3.919,3.983-6.053,9.254-6.007,14.842
			l0.441,54.536c0.093,11.442,9.476,20.75,20.916,20.75l0.173,0c11.534-0.094,20.843-9.554,20.75-21.089l-0.441-54.535
			C257.756,10.31,248.363,1.001,236.911,1.001z"/>
	</g>
	<g>
		<path d="M21.919,217.116c-11.798,0-21.381,9.546-21.419,21.353c-0.037,11.831,9.523,21.45,21.354,21.487l54.535,0.171
			c0.023,0,0.045,0,0.068,0c11.798,0,21.382-9.547,21.419-21.354c0.038-11.83-9.523-21.45-21.353-21.487l-54.536-0.171
			C21.964,217.116,21.942,217.116,21.919,217.116z"/>
		<path d="M76.457,260.627h-0.068l-54.537-0.171C9.765,260.418-0.038,250.554,0,238.467c0.039-12.048,9.871-21.851,21.919-21.851
			l54.605,0.171c5.855,0.018,11.353,2.315,15.48,6.468c4.127,4.153,6.39,9.665,6.372,15.521
			C98.338,250.824,88.505,260.627,76.457,260.627z M21.986,217.616c-11.565,0-20.949,9.355-20.986,20.855
			c-0.036,11.535,9.319,20.949,20.855,20.985l54.535,0.171l0.067,0.5v-0.5c11.499,0,20.883-9.355,20.919-20.855
			c0.018-5.587-2.142-10.848-6.081-14.812c-3.939-3.964-9.186-6.156-14.773-6.173L21.986,217.616z"/>
	</g>
	<g>
		<path d="M474.964,236.755c-0.096-11.771-9.666-21.247-21.416-21.247c-0.059,0-0.118,0-0.177,0.001l-54.535,0.441
			c-11.83,0.095-21.342,9.763-21.247,21.592c0.096,11.771,9.666,21.247,21.416,21.247c0.059,0,0.118,0,0.177,0l54.535-0.441
			C465.547,258.253,475.059,248.586,474.964,236.755z"/>
		<path d="M399.184,259.29h-0.179c-11.987,0-21.818-9.754-21.916-21.743c-0.097-12.086,9.657-21.999,21.743-22.096l54.716-0.442
			c11.987,0,21.818,9.754,21.916,21.743c0.097,12.086-9.657,22-21.743,22.097L399.184,259.29z M453.548,216.008l-0.169,0.001
			l-54.539,0.441c-11.534,0.093-20.844,9.553-20.751,21.088c0.093,11.442,9.476,20.751,20.916,20.751h0.175l54.533-0.441
			c11.534-0.094,20.844-9.554,20.751-21.089C474.371,225.317,464.988,216.008,453.548,216.008z"/>
	</g>
	<g>
		<path d="M85.698,412.322c5.459,0,10.92-2.074,15.098-6.227l38.684-38.441c8.391-8.339,8.434-21.901,0.095-30.292
			c-8.338-8.393-21.901-8.435-30.292-0.096l-38.684,38.442c-8.391,8.338-8.434,21.9-0.095,30.292
			C74.691,410.214,80.194,412.322,85.698,412.322z"/>
		<path d="M85.698,412.822c-5.881,0-11.403-2.297-15.548-6.469c-4.127-4.153-6.391-9.665-6.372-15.521
			c0.019-5.854,2.316-11.352,6.469-15.479l38.684-38.442c4.135-4.109,9.622-6.372,15.451-6.372c5.881,0,11.403,2.298,15.548,6.47
			c4.127,4.153,6.39,9.664,6.372,15.52c-0.019,5.855-2.316,11.353-6.469,15.479l-38.684,38.441
			C97.014,410.56,91.527,412.822,85.698,412.822z M124.381,331.54c-5.563,0-10.8,2.16-14.746,6.081l-38.684,38.442
			c-3.964,3.938-6.156,9.186-6.174,14.772c-0.018,5.589,2.142,10.849,6.081,14.812c3.957,3.981,9.227,6.174,14.839,6.174
			c5.563,0,10.8-2.16,14.746-6.081l38.684-38.441c3.964-3.939,6.156-9.186,6.174-14.773c0.017-5.588-2.142-10.849-6.081-14.812
			C135.264,333.733,129.994,331.54,124.381,331.54z"/>
	</g>
	<g>
		<path d="M366.784,138.46l38.25-38.875c8.297-8.433,8.188-21.994-0.244-30.292c-8.434-8.297-21.994-8.187-30.292,0.245
			l-38.251,38.875c-8.297,8.433-8.187,21.994,0.245,30.292c4.172,4.105,9.598,6.152,15.022,6.152
			C357.054,144.857,362.592,142.72,366.784,138.46z"/>
		<path d="M351.515,145.357c-5.788,0-11.247-2.236-15.373-6.295c-8.615-8.478-8.728-22.383-0.251-30.999l38.251-38.875
			c4.154-4.221,9.703-6.546,15.626-6.546c5.787,0,11.247,2.236,15.373,6.295c8.614,8.478,8.727,22.383,0.25,30.999l-38.25,38.875
			C362.986,143.032,357.437,145.357,351.515,145.357z M389.768,63.642c-5.652,0-10.948,2.219-14.913,6.247l-38.251,38.875
			c-8.09,8.222-7.982,21.494,0.239,29.584c3.938,3.875,9.148,6.008,14.672,6.008c5.652,0,10.948-2.219,14.913-6.247l38.25-38.875
			c8.09-8.223,7.983-21.494-0.238-29.584C400.501,65.776,395.291,63.642,389.768,63.642z"/>
	</g>
	<g>
		<path d="M123.004,145.802c5.459,0,10.92-2.074,15.098-6.227c8.391-8.338,8.434-21.901,0.095-30.292L99.755,70.6
			c-8.338-8.392-21.901-8.434-30.292-0.095c-8.391,8.338-8.434,21.901-0.095,30.292l38.441,38.683
			C111.997,143.693,117.5,145.802,123.004,145.802z"/>
		<path d="M123.004,146.302c-5.881,0-11.403-2.297-15.548-6.469L69.014,101.15c-4.127-4.153-6.391-9.665-6.372-15.521
			c0.019-5.855,2.316-11.352,6.469-15.479c4.135-4.109,9.622-6.372,15.451-6.372c5.881,0,11.403,2.297,15.548,6.469l38.441,38.684
			c4.127,4.153,6.391,9.665,6.372,15.52c-0.019,5.855-2.316,11.352-6.469,15.479C134.32,144.039,128.833,146.302,123.004,146.302z
			 M84.562,64.778c-5.563,0-10.8,2.16-14.746,6.081c-3.964,3.939-6.156,9.186-6.174,14.773s2.142,10.848,6.081,14.812l38.441,38.683
			c3.957,3.981,9.227,6.174,14.839,6.174c5.563,0,10.8-2.16,14.746-6.081c3.964-3.939,6.156-9.186,6.174-14.773
			s-2.142-10.848-6.081-14.812L99.401,70.952C95.445,66.971,90.175,64.778,84.562,64.778z"/>
	</g>
	<g>
		<path d="M375.879,405.034c4.172,4.105,9.598,6.152,15.022,6.152c5.539,0,11.077-2.137,15.269-6.396
			c8.297-8.434,8.188-21.994-0.244-30.292l-38.875-38.25c-8.433-8.298-21.993-8.187-30.291,0.245
			c-8.297,8.433-8.188,21.994,0.245,30.291L375.879,405.034z"/>
		<path d="M390.901,411.687c-5.788,0-11.247-2.236-15.373-6.296l-38.874-38.25c-8.615-8.477-8.728-22.383-0.251-30.998
			c4.154-4.222,9.704-6.546,15.627-6.546c5.786,0,11.246,2.235,15.371,6.295l38.875,38.25c8.614,8.478,8.726,22.384,0.25,30.999
			C402.373,409.362,396.824,411.687,390.901,411.687z M352.03,330.597c-5.652,0-10.949,2.219-14.914,6.247
			c-8.091,8.223-7.983,21.494,0.239,29.584l38.874,38.25c3.938,3.875,9.148,6.009,14.672,6.009c5.652,0,10.948-2.219,14.912-6.247
			c8.09-8.223,7.982-21.494-0.238-29.585l-38.875-38.25C362.763,332.73,357.553,330.597,352.03,330.597z"/>
	</g>
</g>
</svg>